<svg id="visual" viewBox="0 0 900 600" width="900" height="600" xmlns="http://www.w3.org/2000/svg" xmlns:xlink="http://www.w3.org/1999/xlink" version="1.1"><g stroke-width="1" stroke-linejoin="bevel"><path d="M397 282L439 174L333 274Z" fill="#19435d" stroke="#19435d"></path><path d="M439 174L376 126L333 274Z" fill="#1d4e6b" stroke="#1d4e6b"></path><path d="M376 126L268 235L333 274Z" fill="#0c2435" stroke="#0c2435"></path><path d="M536 266L483 166L439 174Z" fill="#15384f" stroke="#15384f"></path><path d="M439 174L473 93L376 126Z" fill="#205a7a" stroke="#205a7a"></path><path d="M220 118L222 202L268 235Z" fill="#19435d" stroke="#19435d"></path><path d="M483 166L473 93L439 174Z" fill="#246688" stroke="#246688"></path><path d="M296 0L267 76L376 126Z" fill="#00101c" stroke="#00101c"></path><path d="M376 126L267 76L268 235Z" fill="#277297" stroke="#277297"></path><path d="M397 282L536 266L439 174Z" fill="#081a28" stroke="#081a28"></path><path d="M483 166L592 112L473 93Z" fill="#297ea6" stroke="#297ea6"></path><path d="M267 76L220 118L268 235Z" fill="#205a7a" stroke="#205a7a"></path><path d="M189 365L296 408L333 274Z" fill="#1d4e6b" stroke="#1d4e6b"></path><path d="M333 274L296 408L397 282Z" fill="#112e42" stroke="#112e42"></path><path d="M397 282L469 439L536 266Z" fill="#277297" stroke="#277297"></path><path d="M189 365L333 274L268 235Z" fill="#205a7a" stroke="#205a7a"></path><path d="M536 266L585 231L483 166Z" fill="#277297" stroke="#277297"></path><path d="M504 0L421 0L473 93Z" fill="#19435d" stroke="#19435d"></path><path d="M473 93L421 0L376 126Z" fill="#00101c" stroke="#00101c"></path><path d="M121 209L164 284L222 202Z" fill="#15384f" stroke="#15384f"></path><path d="M222 202L164 284L268 235Z" fill="#15384f" stroke="#15384f"></path><path d="M421 0L296 0L376 126Z" fill="#19435d" stroke="#19435d"></path><path d="M267 76L228 0L220 118Z" fill="#297ea6" stroke="#297ea6"></path><path d="M296 408L385 436L397 282Z" fill="#205a7a" stroke="#205a7a"></path><path d="M536 266L604 271L585 231Z" fill="#00101c" stroke="#00101c"></path><path d="M617 370L604 271L536 266Z" fill="#00101c" stroke="#00101c"></path><path d="M680 187L592 112L585 231Z" fill="#081a28" stroke="#081a28"></path><path d="M585 231L592 112L483 166Z" fill="#205a7a" stroke="#205a7a"></path><path d="M164 284L189 365L268 235Z" fill="#297ea6" stroke="#297ea6"></path><path d="M385 436L469 439L397 282Z" fill="#205a7a" stroke="#205a7a"></path><path d="M592 112L504 0L473 93Z" fill="#15384f" stroke="#15384f"></path><path d="M68 120L121 209L220 118Z" fill="#277297" stroke="#277297"></path><path d="M220 118L121 209L222 202Z" fill="#19435d" stroke="#19435d"></path><path d="M164 284L112 338L189 365Z" fill="#081a28" stroke="#081a28"></path><path d="M296 0L228 0L267 76Z" fill="#246688" stroke="#246688"></path><path d="M121 209L112 338L164 284Z" fill="#277297" stroke="#277297"></path><path d="M308 534L385 436L296 408Z" fill="#205a7a" stroke="#205a7a"></path><path d="M469 439L617 370L536 266Z" fill="#00101c" stroke="#00101c"></path><path d="M604 271L680 187L585 231Z" fill="#081a28" stroke="#081a28"></path><path d="M385 436L426 504L469 439Z" fill="#00101c" stroke="#00101c"></path><path d="M469 439L628 501L617 370Z" fill="#0c2435" stroke="#0c2435"></path><path d="M308 534L426 504L385 436Z" fill="#19435d" stroke="#19435d"></path><path d="M216 503L296 408L189 365Z" fill="#205a7a" stroke="#205a7a"></path><path d="M696 0L588 0L592 112Z" fill="#1d4e6b" stroke="#1d4e6b"></path><path d="M592 112L588 0L504 0Z" fill="#00101c" stroke="#00101c"></path><path d="M684 317L680 187L604 271Z" fill="#297ea6" stroke="#297ea6"></path><path d="M86 0L68 120L220 118Z" fill="#0c2435" stroke="#0c2435"></path><path d="M121 209L0 271L112 338Z" fill="#15384f" stroke="#15384f"></path><path d="M0 427L125 420L112 338Z" fill="#0c2435" stroke="#0c2435"></path><path d="M112 338L125 420L189 365Z" fill="#297ea6" stroke="#297ea6"></path><path d="M617 370L684 317L604 271Z" fill="#246688" stroke="#246688"></path><path d="M216 503L308 534L296 408Z" fill="#205a7a" stroke="#205a7a"></path><path d="M125 420L216 503L189 365Z" fill="#19435d" stroke="#19435d"></path><path d="M810 107L698 123L839 163Z" fill="#205a7a" stroke="#205a7a"></path><path d="M680 187L698 123L592 112Z" fill="#277297" stroke="#277297"></path><path d="M502 600L512 529L426 504Z" fill="#081a28" stroke="#081a28"></path><path d="M426 504L512 529L469 439Z" fill="#0c2435" stroke="#0c2435"></path><path d="M617 370L722 395L684 317Z" fill="#1d4e6b" stroke="#1d4e6b"></path><path d="M228 0L86 0L220 118Z" fill="#277297" stroke="#277297"></path><path d="M0 77L0 210L68 120Z" fill="#19435d" stroke="#19435d"></path><path d="M68 120L0 210L121 209Z" fill="#112e42" stroke="#112e42"></path><path d="M216 503L277 600L308 534Z" fill="#246688" stroke="#246688"></path><path d="M125 420L132 497L216 503Z" fill="#297ea6" stroke="#297ea6"></path><path d="M0 477L132 497L125 420Z" fill="#277297" stroke="#277297"></path><path d="M0 210L0 271L121 209Z" fill="#297ea6" stroke="#297ea6"></path><path d="M698 123L696 0L592 112Z" fill="#15384f" stroke="#15384f"></path><path d="M512 529L628 501L469 439Z" fill="#205a7a" stroke="#205a7a"></path><path d="M308 534L401 600L426 504Z" fill="#297ea6" stroke="#297ea6"></path><path d="M512 529L633 600L628 501Z" fill="#297ea6" stroke="#297ea6"></path><path d="M277 600L401 600L308 534Z" fill="#19435d" stroke="#19435d"></path><path d="M628 501L722 395L617 370Z" fill="#205a7a" stroke="#205a7a"></path><path d="M684 317L772 288L680 187Z" fill="#0c2435" stroke="#0c2435"></path><path d="M698 123L777 0L696 0Z" fill="#0c2435" stroke="#0c2435"></path><path d="M86 0L0 77L68 120Z" fill="#1d4e6b" stroke="#1d4e6b"></path><path d="M189 600L277 600L216 503Z" fill="#1d4e6b" stroke="#1d4e6b"></path><path d="M722 395L772 288L684 317Z" fill="#15384f" stroke="#15384f"></path><path d="M401 600L502 600L426 504Z" fill="#277297" stroke="#277297"></path><path d="M86 0L0 0L0 77Z" fill="#00101c" stroke="#00101c"></path><path d="M121 600L189 600L132 497Z" fill="#0c2435" stroke="#0c2435"></path><path d="M132 497L189 600L216 503Z" fill="#112e42" stroke="#112e42"></path><path d="M0 271L0 427L112 338Z" fill="#112e42" stroke="#112e42"></path><path d="M839 163L698 123L680 187Z" fill="#246688" stroke="#246688"></path><path d="M628 501L704 516L722 395Z" fill="#081a28" stroke="#081a28"></path><path d="M722 395L834 431L772 288Z" fill="#00101c" stroke="#00101c"></path><path d="M663 600L704 516L628 501Z" fill="#112e42" stroke="#112e42"></path><path d="M810 107L777 0L698 123Z" fill="#297ea6" stroke="#297ea6"></path><path d="M0 427L0 477L125 420Z" fill="#15384f" stroke="#15384f"></path><path d="M0 600L121 600L132 497Z" fill="#205a7a" stroke="#205a7a"></path><path d="M502 600L633 600L512 529Z" fill="#112e42" stroke="#112e42"></path><path d="M772 288L839 163L680 187Z" fill="#297ea6" stroke="#297ea6"></path><path d="M810 107L900 0L777 0Z" fill="#277297" stroke="#277297"></path><path d="M900 216L839 163L772 288Z" fill="#205a7a" stroke="#205a7a"></path><path d="M633 600L663 600L628 501Z" fill="#0c2435" stroke="#0c2435"></path><path d="M822 537L834 431L704 516Z" fill="#081a28" stroke="#081a28"></path><path d="M704 516L834 431L722 395Z" fill="#112e42" stroke="#112e42"></path><path d="M900 286L900 216L772 288Z" fill="#297ea6" stroke="#297ea6"></path><path d="M839 163L900 122L810 107Z" fill="#0c2435" stroke="#0c2435"></path><path d="M834 431L900 286L772 288Z" fill="#19435d" stroke="#19435d"></path><path d="M900 216L900 122L839 163Z" fill="#081a28" stroke="#081a28"></path><path d="M0 477L0 600L132 497Z" fill="#15384f" stroke="#15384f"></path><path d="M780 600L822 537L704 516Z" fill="#246688" stroke="#246688"></path><path d="M834 431L900 408L900 286Z" fill="#277297" stroke="#277297"></path><path d="M900 490L900 408L834 431Z" fill="#205a7a" stroke="#205a7a"></path><path d="M663 600L780 600L704 516Z" fill="#205a7a" stroke="#205a7a"></path><path d="M900 122L900 0L810 107Z" fill="#0c2435" stroke="#0c2435"></path><path d="M900 600L900 490L822 537Z" fill="#15384f" stroke="#15384f"></path><path d="M822 537L900 490L834 431Z" fill="#15384f" stroke="#15384f"></path><path d="M780 600L900 600L822 537Z" fill="#19435d" stroke="#19435d"></path></g></svg>